<svg width="512" height="512" viewBox="0 0 512 512" fill="none" xmlns="http://www.w3.org/2000/svg">
<rect width="512" height="512" rx="80" fill="#4CAF50"/>
<circle cx="256" cy="200" r="80" fill="#ffffff" opacity="0.9"/>
<path d="M256 140 L270 180 L310 180 L280 205 L290 245 L256 220 L222 245 L232 205 L202 180 L242 180 Z" fill="#4CAF50"/>
<path d="M120 320 Q160 300 200 320 T280 320 T360 320 T440 320" stroke="#ffffff" stroke-width="8" fill="none" opacity="0.7"/>
<path d="M120 360 Q160 340 200 360 T280 360 T360 360 T440 360" stroke="#ffffff" stroke-width="6" fill="none" opacity="0.5"/>
<path d="M120 400 Q160 380 200 400 T280 400 T360 400 T440 400" stroke="#ffffff" stroke-width="4" fill="none" opacity="0.3"/>
<circle cx="180" cy="150" r="8" fill="#ffffff" opacity="0.6"/>
<circle cx="332" cy="160" r="8" fill="#ffffff" opacity="0.6"/>
<circle cx="150" cy="250" r="6" fill="#ffffff" opacity="0.4"/>
<circle cx="360" cy="240" r="6" fill="#ffffff" opacity="0.4"/>
</svg>
